<svg width="0" height="0" class="hidden">
  <symbol viewBox="0 1 511 511.999" xmlns="http://www.w3.org/2000/svg" id="home">
    <path d="M498.7 222.695c-.016-.011-.028-.027-.04-.039L289.805 13.81C280.902 4.902 269.066 0 256.477 0c-12.59 0-24.426 4.902-33.332 13.809L14.398 222.55c-.07.07-.144.144-.21.215-18.282 18.386-18.25 48.218.09 66.558 8.378 8.383 19.44 13.235 31.273 13.746.484.047.969.07 1.457.07h8.32v153.696c0 30.418 24.75 55.164 55.168 55.164h81.711c8.285 0 15-6.719 15-15V376.5c0-13.879 11.293-25.168 25.172-25.168h48.195c13.88 0 25.168 11.29 25.168 25.168V497c0 8.281 6.715 15 15 15h81.711c30.422 0 55.168-24.746 55.168-55.164V303.14h7.719c12.586 0 24.422-4.903 33.332-13.813 18.36-18.367 18.367-48.254.027-66.633zm-21.243 45.422a17.03 17.03 0 0 1-12.117 5.024h-22.72c-8.285 0-15 6.714-15 15v168.695c0 13.875-11.289 25.164-25.168 25.164h-66.71V376.5c0-30.418-24.747-55.168-55.169-55.168H232.38c-30.422 0-55.172 24.75-55.172 55.168V482h-66.71c-13.876 0-25.169-11.29-25.169-25.164V288.14c0-8.286-6.715-15-15-15H48a13.9 13.9 0 0 0-.703-.032c-4.469-.078-8.66-1.851-11.8-4.996-6.68-6.68-6.68-17.55 0-24.234.003 0 .003-.004.007-.008l.012-.012L244.363 35.02A17.003 17.003 0 0 1 256.477 30c4.574 0 8.875 1.781 12.113 5.02l208.8 208.796.098.094c6.645 6.692 6.633 17.54-.031 24.207zm0 0"></path>
  </symbol>
  <symbol xmlns="http://www.w3.org/2000/svg" viewBox="0 0 512.001 512.001" id="butler">
    <path d="M474.363 256.801h-11.584c-7.555-92.761-85.452-165.936-180.126-165.936h-10.98v-2.464c12.884-5.985 21.851-19.1 21.851-34.29 0-20.818-16.831-37.753-37.521-37.753-20.689 0-37.52 16.936-37.52 37.753 0 15.188 8.964 28.301 21.844 34.286v2.467h-10.98c-94.674 0-172.571 73.175-180.126 165.936H37.637C16.883 256.801 0 273.685 0 294.438v.232c0 20.753 16.883 37.638 37.637 37.638h108.845V479.97c0 8.656 7.018 15.673 15.673 15.673h164.678c8.656 0 15.674-7.018 15.674-15.673v-59.463l35.389-88.199h96.468c20.753 0 37.637-16.884 37.637-37.638v-.232c-.001-20.753-16.884-37.637-37.638-37.637zM256.003 47.704c3.405 0 6.174 2.873 6.174 6.406 0 3.533-2.769 6.406-6.174 6.406-3.404 0-6.173-2.873-6.173-6.406 0-3.532 2.769-6.406 6.173-6.406zm-26.656 74.508h53.307c77.381 0 141.209 59.135 148.661 134.589H80.686c7.453-75.454 71.281-134.589 148.661-134.589zm81.813 342.085H177.829v-31.143H311.16v31.143zm5.074-62.49H177.829v-69.499h23.481l-4.009 19.901c-2.821 14.004 13.171 24.224 24.698 15.688l48.02-35.589h74.101l-27.886 69.499zM480.653 294.67a6.298 6.298 0 0 1-6.29 6.291H37.636a6.298 6.298 0 0 1-6.29-6.291v-.232a6.298 6.298 0 0 1 6.29-6.291h436.727a6.298 6.298 0 0 1 6.29 6.291v.232z"></path>
  </symbol>
  <symbol xmlns="http://www.w3.org/2000/svg" viewBox="0 0 426.667 426.667" id="more">
    <circle cx="42.667" cy="213.333" r="42.667"></circle>
    <circle cx="213.333" cy="213.333" r="42.667"></circle>
    <circle cx="384" cy="213.333" r="42.667"></circle>
  </symbol>
  <symbol viewBox="0 0 72 72" xmlns="http://www.w3.org/2000/svg" id="trello">
    <title>Trello</title>
    <g fill="none" fill-rule="evenodd">
      <path d="M18 21v27a3 3 0 0 0 3 3h9a3 3 0 0 0 3-3V21a3 3 0 0 0-3-3h-9a3 3 0 0 0-3 3zm21 0v15a3 3 0 0 0 3 3h9a3 3 0 0 0 3-3V21a3 3 0 0 0-3-3h-9a3 3 0 0 0-3 3zm-21-9c-3.313 0-6 2.688-6 6v36c0 3.313 2.688 6 6 6h36c3.313 0 6-2.688 6-6V18c0-3.313-2.688-6-6-6H18z" fill="#FFF"></path>
    </g>
  </symbol>
  <symbol xmlns="http://www.w3.org/2000/svg" viewBox="0 0 276.167 276.167" id="dots-menu">
    <path d="M33.144 2.471C15.336 2.471.85 16.958.85 34.765s14.48 32.293 32.294 32.293 32.294-14.486 32.294-32.293S50.951 2.471 33.144 2.471zm104.519 0c-17.807 0-32.294 14.487-32.294 32.294s14.487 32.293 32.294 32.293c17.808 0 32.297-14.486 32.297-32.293S155.477 2.471 137.663 2.471zm106.21 64.588c17.804 0 32.294-14.486 32.294-32.293S261.689 2.471 243.873 2.471s-32.294 14.487-32.294 32.294 14.489 32.294 32.294 32.294zM32.3 170.539c17.807 0 32.297-14.483 32.297-32.293 0-17.811-14.49-32.297-32.297-32.297S0 120.436 0 138.246c0 17.81 14.493 32.293 32.3 32.293zm104.519 0c17.804 0 32.294-14.483 32.294-32.293 0-17.811-14.478-32.297-32.294-32.297-17.813 0-32.294 14.486-32.294 32.297 0 17.81 14.487 32.293 32.294 32.293zm106.219 0c17.811 0 32.294-14.483 32.294-32.293 0-17.811-14.483-32.297-32.294-32.297s-32.306 14.486-32.306 32.297c0 17.81 14.49 32.293 32.306 32.293zM33.039 209.108c-17.807 0-32.3 14.483-32.3 32.294 0 17.804 14.493 32.293 32.3 32.293s32.293-14.482 32.293-32.293-14.486-32.294-32.293-32.294zm104.525 0c-17.808 0-32.3 14.483-32.3 32.294 0 17.804 14.487 32.293 32.3 32.293 17.804 0 32.293-14.482 32.293-32.293s-14.489-32.294-32.293-32.294zm106.207 0c-17.804 0-32.294 14.483-32.294 32.294 0 17.804 14.49 32.293 32.294 32.293 17.811 0 32.294-14.482 32.294-32.293s-14.49-32.294-32.294-32.294z"></path>
  </symbol>
  <symbol xmlns="http://www.w3.org/2000/svg" viewBox="0 0 511.999 511.999" id="search">
    <path d="M225.773.616C101.283.616 0 101.622 0 225.773S101.284 450.93 225.773 450.93s225.774-101.006 225.774-225.157S350.263.616 225.773.616zm0 413.301c-104.084 0-188.761-84.406-188.761-188.145 0-103.745 84.677-188.145 188.761-188.145s188.761 84.4 188.761 188.145c.001 103.739-84.676 188.145-188.761 188.145z"></path>
    <path d="M506.547 479.756L385.024 358.85c-7.248-7.205-18.963-7.174-26.174.068-7.205 7.248-7.174 18.962.068 26.174l121.523 120.906a18.457 18.457 0 0 0 13.053 5.385 18.45 18.45 0 0 0 13.121-5.453c7.205-7.249 7.174-18.963-.068-26.174z"></path>
  </symbol>
  <symbol viewBox="0 -10 511.987 511" xmlns="http://www.w3.org/2000/svg" id="star">
    <path d="M114.594 491.14c-5.61 0-11.18-1.75-15.934-5.187a27.223 27.223 0 0 1-10.582-28.094l32.938-145.09L9.312 214.81a27.188 27.188 0 0 1-7.976-28.907 27.208 27.208 0 0 1 23.402-18.71l147.797-13.419L230.97 17.027C235.277 6.98 245.089.492 255.992.492s20.715 6.488 25.024 16.512l58.433 136.77 147.774 13.417c10.882.98 20.054 8.344 23.425 18.711 3.372 10.368.254 21.739-7.957 28.907L390.988 312.75l32.938 145.086c2.414 10.668-1.727 21.7-10.578 28.098-8.832 6.398-20.61 6.89-29.91 1.3l-127.446-76.16-127.445 76.203c-4.309 2.559-9.11 3.864-13.953 3.864zm141.398-112.874c4.844 0 9.64 1.3 13.953 3.859l120.278 71.938-31.086-136.942a27.21 27.21 0 0 1 8.62-26.516l105.473-92.5-139.543-12.671a27.18 27.18 0 0 1-22.613-16.493L255.992 39.895 200.844 168.96c-3.883 9.195-12.524 15.512-22.547 16.43L38.734 198.062l105.47 92.5c7.554 6.614 10.858 16.77 8.62 26.54l-31.062 136.937 120.277-71.914c4.309-2.559 9.11-3.86 13.953-3.86zm-84.586-221.848s0 .023-.023.043zm169.13-.063l.023.043c0-.023 0-.023-.024-.043zm0 0"></path>
  </symbol>
  <symbol xmlns="http://www.w3.org/2000/svg" viewBox="0 0 510 510" id="world-shape-public-symbol">
    <path d="M255 0C114.75 0 0 114.75 0 255s114.75 255 255 255 255-114.75 255-255S395.25 0 255 0zm-25.5 456.45C130.05 443.7 51 357 51 255c0-15.3 2.55-30.6 5.1-45.9l122.4 122.4V357c0 28.05 22.95 51 51 51v48.45zm175.95-63.75C397.8 372.3 379.95 357 357 357h-25.5v-76.5c0-15.3-10.2-25.5-25.5-25.5H153v-51h51c15.3 0 25.5-10.2 25.5-25.5v-51h51c28.05 0 51-22.95 51-51V66.3C405.45 96.9 459 170.85 459 255c0 53.55-20.4 102-53.55 137.7z"></path>
  </symbol>
  <symbol xmlns="http://www.w3.org/2000/svg" viewBox="0 0 512 512" id="plus">
    <path d="M492 236H276V20c0-11.046-8.954-20-20-20s-20 8.954-20 20v216H20c-11.046 0-20 8.954-20 20s8.954 20 20 20h216v216c0 11.046 8.954 20 20 20s20-8.954 20-20V276h216c11.046 0 20-8.954 20-20s-8.954-20-20-20z"></path>
  </symbol>
  <symbol xmlns="http://www.w3.org/2000/svg" viewBox="0 0 496 496" id="stopwatch">
    <path d="M471.917 266.316a223.95 223.95 0 0 0-56.161-142.684l35.2-33.696A8 8 0 1 0 439.893 78.4l-35.2 33.672c-.8-.8-1.6-1.672-2.488-2.48A222.854 222.854 0 0 0 255.948 48.2c0-.072.04-.128.04-.2V16h24a8 8 0 0 0 0-16h-64a8 8 0 0 0 0 16h24v32.192C116.377 52.601 19.745 156.382 24.154 279.993A223.959 223.959 0 0 0 93.74 434.399a222.4 222.4 0 0 0 154.088 61.6c1.984 0 3.963-.027 5.936-.08 123.645-3.161 221.315-105.959 218.153-229.603zM253.356 479.928c-114.851 2.378-209.883-88.799-212.261-203.65-2.361-114.021 87.533-208.68 201.525-212.206 1.848-.072 3.672-.072 5.512-.072 114.875.134 207.891 93.367 207.757 208.242-.131 112.652-89.92 204.725-202.533 207.686z"></path>
    <path d="M248.37 240a32.193 32.193 0 0 0-17.575 5.096L125.348 139.648a8 8 0 0 0-11.312 11.312l105.952 105.928a31.592 31.592 0 0 0-4 15.112c-.106 17.779 14.222 32.277 32 32.382 17.779.106 32.277-14.222 32.382-32 .106-17.779-14.221-32.277-32-32.382zm-.382 48c-8.837 0-16-7.163-16-16s7.163-16 16-16 16 7.163 16 16-7.164 16-16 16z"></path>
  </symbol>
  <symbol xmlns="http://www.w3.org/2000/svg" viewBox="0 0 512 512" id="information">
    <path d="M256 0C114.497 0 0 114.507 0 256c0 141.503 114.507 256 256 256 141.503 0 256-114.507 256-256C512 114.497 397.492 0 256 0zm0 472c-119.393 0-216-96.615-216-216 0-119.393 96.615-216 216-216 119.393 0 216 96.615 216 216 0 119.393-96.616 216-216 216z"></path>
    <path d="M256 214.33c-11.046 0-20 8.954-20 20v128.793c0 11.046 8.954 20 20 20s20-8.955 20-20.001V234.33c0-11.046-8.954-20-20-20z"></path>
    <circle cx="256" cy="162.84" r="27"></circle>
  </symbol>
  <symbol xmlns="http://www.w3.org/2000/svg" viewBox="0 0 512 512" id="notification">
    <path d="M467.819 431.851l-36.651-61.056a181.486 181.486 0 0 1-25.835-93.312V224c0-82.325-67.008-149.333-149.333-149.333S106.667 141.675 106.667 224v53.483c0 32.875-8.939 65.131-25.835 93.312l-36.651 61.056a10.665 10.665 0 0 0-.149 10.731 10.704 10.704 0 0 0 9.301 5.419h405.333c3.84 0 7.403-2.069 9.301-5.419a10.665 10.665 0 0 0-.148-10.731zm-395.648-5.184l26.944-44.907A202.631 202.631 0 0 0 128 277.483V224c0-70.592 57.408-128 128-128s128 57.408 128 128v53.483c0 36.736 9.984 72.789 28.864 104.277l26.965 44.907H72.171z"></path>
    <path d="M256 0c-23.531 0-42.667 19.136-42.667 42.667v42.667C213.333 91.221 218.112 96 224 96s10.667-4.779 10.667-10.667V42.667c0-11.776 9.557-21.333 21.333-21.333s21.333 9.557 21.333 21.333v42.667C277.333 91.221 282.112 96 288 96s10.667-4.779 10.667-10.667V42.667C298.667 19.136 279.531 0 256 0zm46.165 431.936c-3.008-5.077-9.515-6.741-14.613-3.819-5.099 2.987-6.805 9.536-3.819 14.613 2.773 4.715 4.288 10.368 4.288 15.936 0 17.643-14.357 32-32 32s-32-14.357-32-32c0-5.568 1.515-11.221 4.288-15.936 2.965-5.099 1.259-11.627-3.819-14.613-5.141-2.923-11.627-1.259-14.613 3.819-4.715 8.064-7.211 17.301-7.211 26.731C202.667 488.085 226.581 512 256 512s53.333-23.915 53.376-53.333c0-9.43-2.496-18.667-7.211-26.731z"></path>
  </symbol>
  <symbol xmlns="http://www.w3.org/2000/svg" viewBox="0 0 379.794 379.794" id="lock">
    <path d="M305.901 163.69v-47.686C305.901 52.039 253.862 0 189.897 0S73.893 52.039 73.893 116.004v47.236c-7.213 2.752-14.349 8.96-14.349 21.258v64.942c0 71.877 58.477 130.354 130.354 130.354S320.25 321.317 320.25 249.44v-64.942c0-11.669-6.961-17.855-14.349-20.808zm-91.228 139.542c.408 2.162-1.058 3.931-3.258 3.931H168.87c-2.2 0-3.666-1.769-3.258-3.931l6.814-36.114c-5.201-4.743-8.465-11.574-8.465-19.167 0-14.324 11.612-25.936 25.936-25.936s25.936 11.612 25.936 25.936c0 7.387-3.093 14.047-8.049 18.771l6.889 36.51zm51.228-141.857H113.893v-45.371c0-41.908 34.095-76.004 76.004-76.004 41.908 0 76.004 34.096 76.004 76.004v45.371z"></path>
  </symbol>
  <symbol xmlns="http://www.w3.org/2000/svg" viewBox="0 0 512 512" id="group">
    <path d="M437 268.152h-50.118c-6.821 0-13.425.932-19.71 2.646-12.398-24.372-37.71-41.118-66.877-41.118h-88.59c-29.167 0-54.479 16.746-66.877 41.118a74.798 74.798 0 0 0-19.71-2.646H75c-41.355 0-75 33.645-75 75v80.118c0 24.813 20.187 45 45 45h422c24.813 0 45-20.187 45-45v-80.118c0-41.355-33.645-75-75-75zm-300.295 36.53v133.589H45c-8.271 0-15-6.729-15-15v-80.118c0-24.813 20.187-45 45-45h50.118c4.072 0 8.015.553 11.769 1.572a75.372 75.372 0 0 0-.182 4.957zm208.59 133.589h-178.59v-133.59c0-24.813 20.187-45 45-45h88.59c24.813 0 45 20.187 45 45v133.59zm136.705-15c0 8.271-6.729 15-15 15h-91.705v-133.59a75.32 75.32 0 0 0-.182-4.957 44.899 44.899 0 0 1 11.769-1.572H437c24.813 0 45 20.187 45 45v80.119z"></path>
    <path d="M100.06 126.504c-36.749 0-66.646 29.897-66.646 66.646-.001 36.749 29.897 66.646 66.646 66.646 36.748 0 66.646-29.897 66.646-66.646s-29.897-66.646-66.646-66.646zm-.001 103.292c-20.207 0-36.646-16.439-36.646-36.646s16.439-36.646 36.646-36.646 36.646 16.439 36.646 36.646-16.439 36.646-36.646 36.646zM256 43.729c-49.096 0-89.038 39.942-89.038 89.038s39.942 89.038 89.038 89.038 89.038-39.942 89.038-89.038c0-49.095-39.942-89.038-89.038-89.038zm0 148.076c-32.554 0-59.038-26.484-59.038-59.038 0-32.553 26.484-59.038 59.038-59.038s59.038 26.484 59.038 59.038c0 32.554-26.484 59.038-59.038 59.038zm155.94-65.301c-36.748 0-66.646 29.897-66.646 66.646.001 36.749 29.898 66.646 66.646 66.646 36.749 0 66.646-29.897 66.646-66.646s-29.897-66.646-66.646-66.646zm0 103.292c-20.206 0-36.646-16.439-36.646-36.646.001-20.207 16.44-36.646 36.646-36.646 20.207 0 36.646 16.439 36.646 36.646s-16.439 36.646-36.646 36.646z"></path>
  </symbol>
  <symbol xmlns="http://www.w3.org/2000/svg" viewBox="0 0 220.682 220.682" id="two-arrows-pointing-up">
    <path d="M110.341 0L10.639 99.703l28.285 28.283 71.417-71.418 71.417 71.418 28.285-28.283z"></path>
    <path d="M110.341 92.695l-99.702 99.701 28.285 28.286 71.417-71.418 71.417 71.418 28.285-28.286z"></path>
  </symbol>
    <symbol xmlns="http://www.w3.org/2000/svg" viewBox="0 0 512 512" id="edit">
    <path d="M498.125 92.38L419.62 13.874c-18.496-18.497-48.436-18.5-66.935 0-13.167 13.169-302.639 302.642-308.16 308.161a16.878 16.878 0 0 0-4.46 7.915L.502 491.068c-3.036 12.368 8.186 23.44 20.431 20.432l161.117-39.564a16.878 16.878 0 0 0 7.915-4.46l308.161-308.161c18.496-18.497 18.501-48.436-.001-66.935zM39.957 472.043l1.612-6.562 4.951 4.951-6.563 1.611zm44.917-11.029l-33.887-33.887 14.736-60.009 79.16 79.16-60.009 14.736zm93.148-29.367l-97.668-97.668L332.559 81.773l97.668 97.668-252.205 252.206zM474.24 135.429l-19.508 19.507-97.667-97.668 19.507-19.507c5.294-5.293 13.867-5.298 19.163 0l78.506 78.507c5.295 5.295 5.295 13.864-.001 19.161z"></path>
  </symbol>
  <symbol viewBox="0 0 512 512" xmlns="http://www.w3.org/2000/svg" id="browser">
    <path d="M457.004 0H54.996C24.672 0 0 24.672 0 54.996v402.008C0 487.328 24.672 512 54.996 512h402.008C487.328 512 512 487.328 512 457.004V54.996C512 24.672 487.328 0 457.004 0zM54.996 30h402.008C470.785 30 482 41.215 482 54.996V121H30V54.996C30 41.215 41.215 30 54.996 30zm402.008 452H54.996C41.215 482 30 470.785 30 457.004V151h452v306.004C482 470.785 470.785 482 457.004 482zm0 0"></path>
    <path d="M451 76c0 8.285-6.715 15-15 15s-15-6.715-15-15 6.715-15 15-15 15 6.715 15 15zm-60 0c0 8.285-6.715 15-15 15s-15-6.715-15-15 6.715-15 15-15 15 6.715 15 15zm-60 0c0 8.285-6.715 15-15 15s-15-6.715-15-15 6.715-15 15-15 15 6.715 15 15zm105 105H76c-8.285 0-15 6.715-15 15v90c0 8.285 6.715 15 15 15h360c8.285 0 15-6.715 15-15v-90c0-8.285-6.715-15-15-15zm-15 90H91v-60h330zm-195 60H76c-8.285 0-15 6.715-15 15v90c0 8.285 6.715 15 15 15h150c8.285 0 15-6.715 15-15v-90c0-8.285-6.715-15-15-15zm-15 90H91v-60h120zm225-90H286c-8.285 0-15 6.715-15 15v90c0 8.285 6.715 15 15 15h150c8.285 0 15-6.715 15-15v-90c0-8.285-6.715-15-15-15zm-15 90H301v-60h120zm0 0"></path>
  </symbol>
  <symbol xmlns="http://www.w3.org/2000/svg" viewBox="0 0 512 512" id="user">
    <path d="M437.02 330.98c-27.883-27.882-61.071-48.523-97.281-61.018C378.521 243.251 404 198.548 404 148 404 66.393 337.607 0 256 0S108 66.393 108 148c0 50.548 25.479 95.251 64.262 121.962-36.21 12.495-69.398 33.136-97.281 61.018C26.629 379.333 0 443.62 0 512h40c0-119.103 96.897-216 216-216s216 96.897 216 216h40c0-68.38-26.629-132.667-74.98-181.02zM256 256c-59.551 0-108-48.448-108-108S196.449 40 256 40s108 48.448 108 108-48.449 108-108 108z"></path>
  </symbol>
  <symbol xmlns="http://www.w3.org/2000/svg" viewBox="0 0 477.863 477.863" id="tag">
    <path d="M460.796 0H273.063a17.066 17.066 0 0 0-12.066 5.001l-256 256c-6.663 6.665-6.663 17.468 0 24.132L192.73 472.866c6.665 6.662 17.468 6.662 24.132 0l256-256c3.201-3.2 5-7.54 5.001-12.066V17.067C477.863 7.641 470.222 0 460.796 0zM443.73 197.734L204.796 436.668 41.195 273.067 280.129 34.133H443.73v163.601z"></path>
    <path d="M358.396 68.267c-28.277 0-51.2 22.923-51.2 51.2s22.923 51.2 51.2 51.2 51.2-22.923 51.2-51.2-22.923-51.2-51.2-51.2zm0 68.266c-9.426 0-17.067-7.641-17.067-17.067s7.641-17.067 17.067-17.067 17.067 7.641 17.067 17.067-7.641 17.067-17.067 17.067z"></path>
  </symbol>
  <symbol viewBox="-79 -16 533 533.333" xmlns="http://www.w3.org/2000/svg" id="notepad">
    <path d="M315.809 33.95h-80.356a56.94 56.94 0 0 0-104.183 0H50.91C20.598 33.983-3.965 58.55-4 88.862v356.223c.035 30.312 24.598 54.879 54.91 54.914h264.9c30.312-.035 54.879-24.602 54.914-54.914V88.863c-.035-30.312-24.602-54.879-54.914-54.914zm-175.496 25a12.5 12.5 0 0 0 12.207-9.821C155.59 35.152 168.563 25 183.363 25s27.77 10.152 30.84 24.129a12.494 12.494 0 0 0 12.211 9.82H251.2v10.969c-.02 16.512-13.398 29.89-29.91 29.91h-75.855c-16.516-.02-29.895-13.398-29.914-29.91V58.949zm205.41 386.136c-.016 16.516-13.399 29.898-29.914 29.914H50.91c-16.512-.016-29.89-13.398-29.91-29.914V88.863c.02-16.515 13.398-29.894 29.91-29.914h39.61v10.969c.035 30.312 24.601 54.875 54.914 54.91h75.855c30.313-.035 54.875-24.598 54.91-54.91V58.949h39.61c16.515.02 29.894 13.399 29.914 29.914zm0 0"></path>
    <path d="M245.227 230.957l-82.063 80.125-41.672-40.676c-4.902-4.797-12.754-4.738-17.594.121-4.835 4.864-4.855 12.715-.039 17.598l.168.164 50.399 49.211c4.86 4.742 12.613 4.742 17.469 0l90.792-88.648c4.91-4.829 4.989-12.715.184-17.641-4.812-4.926-12.695-5.035-17.644-.246zm0 0"></path>
  </symbol>
  <symbol viewBox="0 0 512 512" xmlns="http://www.w3.org/2000/svg" id="paperclip">
    <path d="M126.585 512c-27.384 0-54.767-10.424-75.614-31.27-20.198-20.198-31.321-47.052-31.321-75.614 0-28.563 11.123-55.417 31.321-75.615L357.3 23.172C372.242 8.229 392.108 0 413.24 0c21.131 0 40.998 8.229 55.94 23.172 14.942 14.942 23.171 34.808 23.171 55.94 0 21.131-8.229 40.998-23.171 55.94l-264.741 264.74c-19.997 19.996-52.533 19.996-72.531 0-19.997-19.997-19.997-52.533 0-72.531l186.24-186.24c5.478-5.478 14.361-5.478 19.84 0s5.479 14.361 0 19.84L151.747 347.1c-9.057 9.058-9.057 23.794 0 32.852 9.058 9.058 23.794 9.058 32.852 0l264.741-264.74c9.643-9.643 14.953-22.464 14.953-36.1 0-13.637-5.31-26.458-14.953-36.1-19.906-19.906-52.295-19.906-72.201 0L70.81 349.34c-14.898 14.898-23.103 34.706-23.103 55.775 0 21.07 8.205 40.877 23.103 55.775 30.755 30.754 80.796 30.753 111.549.001l228.446-228.447c5.478-5.478 14.361-5.478 19.84 0s5.479 14.361 0 19.84L202.199 480.73C181.352 501.576 153.968 512 126.585 512z" fill="#5a5a5a"></path>
    <path d="M430.645 252.283c5.479-5.478 5.479-14.362 0-19.84-5.478-5.478-14.361-5.478-19.84 0L182.36 460.89c-18.731 18.731-44.614 26.031-68.94 21.944a107.753 107.753 0 0 1-14.955 1.046c-21.091 0-42.178-6.19-60.282-18.557a108.191 108.191 0 0 0 12.787 15.406C71.818 501.576 99.201 512 126.584 512c27.384 0 54.768-10.424 75.615-31.27z" fill="#444"></path>
  </symbol>
  <symbol xmlns="http://www.w3.org/2000/svg" viewBox="0 0 58.25 58.25" id="open-blank-browser-inside-a-circle">
    <path d="M58.25 48.75V9.5c0-1.654-1.346-3-3-3H3c-1.654 0-3 1.346-3 3v39.25c0 1.654 1.346 3 3 3h52.25c1.655 0 3-1.346 3-3zM2 48.75V9.5c0-.551.449-1 1-1h52.25c.551 0 1 .449 1 1v39.25c0 .551-.449 1-1 1H3c-.551 0-1-.448-1-1z"></path>
    <path d="M51.25 16.75H7c-1.654 0-3 1.346-3 3v25.5c0 1.654 1.346 3 3 3h44.25c1.654 0 3-1.346 3-3v-25.5c0-1.654-1.345-3-3-3zm1 28.5c0 .551-.449 1-1 1H7c-.551 0-1-.449-1-1v-25.5c0-.551.449-1 1-1h44.25c.551 0 1 .449 1 1v25.5zm1-33.625h-18.5a1 1 0 0 0 0 2h18.5a1 1 0 1 0 0-2zm-39.5 2h3.125a1 1 0 0 0 0-2H13.75a1 1 0 0 0 0 2zm-8 0h3.125a1 1 0 0 0 0-2H5.75a1 1 0 0 0 0 2z"></path>
  </symbol>
  <symbol xmlns="http://www.w3.org/2000/svg" viewBox="0 0 512 512" id="right-arrow">
    <path d="M511.189 259.954a10.667 10.667 0 0 0-2.325-11.627l-192-192c-4.237-4.093-10.99-3.975-15.083.262-3.992 4.134-3.992 10.687 0 14.82l173.803 173.803H10.667C4.776 245.213 0 249.989 0 255.88c0 5.891 4.776 10.667 10.667 10.667h464.917L301.803 440.328c-4.237 4.093-4.355 10.845-.262 15.083 4.093 4.237 10.845 4.354 15.083.262.089-.086.176-.173.262-.262l192-192a10.693 10.693 0 0 0 2.303-3.457z" fill="#2196f3"></path>
    <path d="M309.333 458.546a10.667 10.667 0 1 1-7.552-18.219l184.47-184.447-184.47-184.448c-4.093-4.237-3.975-10.99.262-15.083 4.134-3.992 10.687-3.992 14.82 0l192 192c4.164 4.165 4.164 10.917 0 15.083l-192 192a10.66 10.66 0 0 1-7.53 3.114z"></path>
    <path d="M501.333 266.546H10.667C4.776 266.546 0 261.771 0 255.88s4.776-10.667 10.667-10.667h490.667c5.891 0 10.667 4.776 10.667 10.667-.001 5.891-4.777 10.666-10.668 10.666z"></path>
  </symbol>
  <symbol xmlns="http://www.w3.org/2000/svg" viewBox="0 0 469.333 469.333" id="copy">
    <path d="M330.667 0h-256C51.093 0 32 19.093 32 42.667v298.667h42.667V42.667h256V0z"></path>
    <path d="M394.667 85.333H160c-23.573 0-42.667 19.093-42.667 42.667v298.667c0 23.573 19.093 42.667 42.667 42.667h234.667c23.573 0 42.667-19.093 42.667-42.667V128c-.001-23.573-19.094-42.667-42.667-42.667zm0 341.334H160V128h234.667v298.667z"></path>
  </symbol>
  <symbol xmlns="http://www.w3.org/2000/svg" viewBox="0 0 512 512" id="website">
    <path d="M96 456H40a8 8 0 0 0 0 16h56a8 8 0 0 0 0-16zm32 0h-8a8 8 0 0 0 0 16h8a8 8 0 0 0 0-16z"></path>
    <path d="M472 8H168a32.036 32.036 0 0 0-32 32v112H88a48.051 48.051 0 0 0-48 48v232H16a8 8 0 0 0-8 8v24a32.036 32.036 0 0 0 32 32h416a32.036 32.036 0 0 0 32-32v-24a8 8 0 0 0-8-8h-24v-96h16a32.036 32.036 0 0 0 32-32V40a32.036 32.036 0 0 0-32-32zM168 336h240v72H88V200h48v104a32.036 32.036 0 0 0 32 32zM56 200a32.036 32.036 0 0 1 32-32h48v16H80a8 8 0 0 0-8 8v224a8 8 0 0 0 8 8h336a8 8 0 0 0 8-8v-80h16v96H56zm212.9 248l-2.67 8h-36.46l-2.67-8zm203.1 0v16a16.021 16.021 0 0 1-16 16H40a16.021 16.021 0 0 1-16-16v-16h186.23l6.18 18.53A8 8 0 0 0 224 472h48a8 8 0 0 0 7.59-5.47l6.18-18.53zm16-144a16.021 16.021 0 0 1-16 16H168a16.021 16.021 0 0 1-16-16V72h336zm0-248H152V40a16.021 16.021 0 0 1 16-16h304a16.021 16.021 0 0 1 16 16z"></path>
    <circle cx="168" cy="40" r="8"></circle>
    <circle cx="192" cy="40" r="8"></circle>
    <circle cx="216" cy="40" r="8"></circle>
    <path d="M336 88H176a8 8 0 0 0-8 8v72a8 8 0 0 0 8 8h160a8 8 0 0 0 8-8V96a8 8 0 0 0-8-8zm-8 72H184v-56h144zm8 24H176a8 8 0 0 0 0 16h160a8 8 0 0 0 0-16zm0 24H176a8 8 0 0 0 0 16h160a8 8 0 0 0 0-16zm0 56H176a8 8 0 0 0 0 16h160a8 8 0 0 0 0-16zm-80 24h-80a8 8 0 0 0 0 16h80a8 8 0 0 0 0-16zm-80-40h96a8 8 0 0 0 0-16h-96a8 8 0 0 0 0 16zm128 0a8 8 0 0 0 0-16h-8a8 8 0 0 0 0 16zM464 88H360a8 8 0 0 0-8 8v200a8 8 0 0 0 8 8h104a8 8 0 0 0 8-8V96a8 8 0 0 0-8-8zm-8 200h-88V104h88zm-168 0h-8a8 8 0 0 0 0 16h8a8 8 0 0 0 0-16z"></path>
  </symbol>
</svg>